<mxfile host="app.diagrams.net" modified="2024-08-16T01:14:17.504Z" agent="Mozilla/5.0 (Windows NT 10.0; Win64; x64) AppleWebKit/537.36 (KHTML, like Gecko) Chrome/127.0.0.0 Safari/537.36" version="24.5.2" etag="IwJOZY9H1Sg7RFHGwSpD" type="github">
  <diagram name="PÃ¡gina-1" id="iGXhQFwDSH8oDt5WrlQw">
    <mxGraphModel>
      <root>
        <mxCell id="0" />
        <mxCell id="1" parent="0" />
      </root>
    </mxGraphModel>
  </diagram>
</mxfile>
